<svg xmlns="http://www.w3.org/2000/svg" id="dexef_sympol" width="30.992" height="30" viewBox="0 0 30.992 30">
    <defs>
        <style>
            .cls-1{fill:#f60}
        </style>
    </defs>
    <path id="Path_289" d="M191.636 4.095l-.06-.057-.06-.06-.057-.057-.06-.06c-.018-.021-.039-.039-.06-.06l-.057-.057-.06-.06-.057-.057-.06-.06-.06-.06-.057-.057-.06-.06-.057-.057-.06-.06c-.018-.021-.039-.039-.06-.06l-.057-.057-.06-.06-.057-.057-.06-.06c-.018-.021-.039-.039-.06-.06l-.057-.069-.06-.06-.057-.057-.06-.06-.06-.06-.057-.057-.06-.06-.057-.06-.06-.057-.06-.06-.057-.057-.06-.06-.06-.06-.057-.057-.06-.06-.057-.057-.06-.06c-.018-.021-.039-.039-.06-.06l-.057-.057-.06-.06-.057-.057-.06-.06-.06-.06-.045-.045-.06-.06-.057-.057-.06-.06-.06-.06-.063-.057-.06-.06c-2.69-2.861-7.085 1.534-4.224 4.224l.057.06.06.06.06.057.057.06.06.057a.564.564 0 0 0 .06.06l.057.06.06.057.057.06.06.057a.565.565 0 0 0 .06.06l.057.06.06.057.057.06.06.057.06.06.057.06.06.057.057.06.06.06.06.057.057.06.06.057.057.06.06.06.06.057.057.06.06.057.057.06.06.06.06.057.057.06.06.057.06.06.057.06.06.057.057.06.06.057a.562.562 0 0 0 .06.06l.057.06.06.057.057.06.06.06.06.057.057.06.06.057.057.06.06.06.06.057.057.06c2.69 2.861 7.079-1.534 4.221-4.227z" class="cls-1" transform="translate(-182.5 -.179)"/>
    <path id="Path_290" d="M261.637 74.109l-.03-.03a.141.141 0 0 1-.03-.03l-.03-.03a.279.279 0 0 1-.03-.03l-.03-.027-.09-.09-.03-.03-.027-.03-.03-.03a.14.14 0 0 1-.03-.03l-.06-.06-.03-.027-.09-.09a.282.282 0 0 0-.03-.03l-.027-.03a.282.282 0 0 1-.03-.03.139.139 0 0 1-.03-.03.279.279 0 0 1-.03-.03l-.03-.03-.03-.027-.09-.09a.285.285 0 0 0-.03-.03l-.027-.03a.277.277 0 0 1-.03-.03l-.06-.06-.03-.03-.03-.027-.06-.06a.141.141 0 0 0-.03-.03.277.277 0 0 0-.03-.03l-.027-.03a.284.284 0 0 1-.03-.03l-.06-.06-.03-.027a.279.279 0 0 0-.03-.03l-.03-.03-.06-.06a.278.278 0 0 0-.03-.03l-.027-.03a.279.279 0 0 1-.03-.03l-.06-.06a.282.282 0 0 1-.03-.03l-.03-.027a.284.284 0 0 0-.03-.03l-.06-.06-.03-.03-.027-.03-.03-.03-.06-.06a.281.281 0 0 1-.03-.03l-.03-.027a.278.278 0 0 0-.03-.03l-.06-.06-.03-.03-.027-.03-.03-.03-.06-.06a.279.279 0 0 1-.03-.03l-.03-.027a.279.279 0 0 0-.03-.03l-.06-.06a.281.281 0 0 0-.03-.03l-.027-.03a.276.276 0 0 1-.03-.03l-.06-.06-.03-.03-.03-.027-.03-.03-.06-.06a.141.141 0 0 0-.03-.03l-.027-.03a.278.278 0 0 1-.03-.03l-.06-.06-.03-.03-.03-.027-.03-.03-.06-.06a.142.142 0 0 0-.03-.03l-.027-.03c-2.69-2.825-7.052 1.534-4.227 4.227l.03.03.03.03.027.027.03.03.03.03.03.03.03.03.03.03.03.03.03.03.03.03.03.03.027.027.03.03.03.03.03.03a.288.288 0 0 0 .03.03l.03.03.03.03.03.03.03.03.03.03.027.027.03.03.03.03.03.03a.28.28 0 0 0 .03.03l.03.03.03.03.03.03.03.03.03.03.03.027.027.03.03.03.03.03a.285.285 0 0 0 .03.03l.03.03.03.03a.28.28 0 0 0 .03.03l.03.03.03.03.03.03.027.027.03.03.03.03.03.03.03.03.03.03.03.03.03.03.03.03.03.03.027.027.03.03.03.03.03.03.03.03.03.03.03.03.03.03.03.03.03.03.027.027.03.03.03.03.03.03.03.03.03.03.03.03.03.03.03.03.03.03.027.027.03.03.03.03.03.03.03.03.03.03.03.03.03.03.03.03.03.03.027.027.03.03.03.03.03.03.03.03.03.03.03.03.03.03.03.03.03.03.027.027.03.03.03.03.03.03.03.03.03.03.03.03c2.69 2.825 7.049-1.536 4.227-4.227z" class="cls-1" transform="translate(-231.561 -49.253)"/>
    <path id="Path_291" d="M205.132 3.025A3.005 3.005 0 0 0 199.96.989c-.057.033-3.2 3.181-3.255 3.231s-.1.1-.146.149-.1.1-.149.146-.1.1-.146.149-.1.1-.149.146-.1.1-.146.149-.1.1-.149.146-.1.1-.146.149-.1.1-.149.146-.1.1-.146.149-.1.1-.149.146-.1.1-.146.149-.1.1-.149.146-.1.1-.147.149-.1.1-.149.146-.1.1-.146.149-.1.1-.149.146-.1.1-.146.149-.1.1-.149.146-.1.1-.146.149-.1.1-.149.146-.1.1-.146.149-.1.1-.149.146-.1.1-.146.149-.1.1-.149.146-.1.1-.146.149-.1.1-.149.146-.1.1-.146.149-.1.1-.149.146-.1.1-.146.149-.1.1-.149.146-.1.1-.146.149-.1.1-.149.146-.1.1-.146.149-.1.1-.149.146-.1.1-.147.149-.1.1-.149.146-.1.1-.146.149-.1.1-.149.146-.1.1-.146.149-.1.1-.149.146-.1.1-.146.149-.1.1-.149.146-.1.1-.146.149-.1.1-.149.146-.1.1-.146.149-.1.1-.149.149l-.146.146-.149.149-.146.146-.149.149-.146.146-.149.149-.146.146-.149.149-.146.146-.149.149-.146.146-.149.149-.146.146-.149.149-.146.146-.149.149-.146.146-.149.149-.146.146-.149.149-.146.146c-.051.048-.1.1-.149.149l-.146.146-.149.149-.146.146-.149.149-.146.146c-.051.048-.1.1-.149.149l-.146.146-.149.149-.146.146-.149.149-.146.146c-.051.048-.1.1-.149.149l-.146.146-.149.149-.146.146-.149.149-.146.146c-.054.048-.1.1-.149.149l-.146.146-.149.149-.146.146-.149.149-.146.146-.149.149-.146.146-.149.149-.146.146-.149.149-.146.146-.149.149c-.049.049-1.157 1.151-1.2 1.2-2.971 2.69 1.531 7.2 4.221 4.221.051-.048 1.157-1.151 1.2-1.2s.1-.1.146-.149.1-.1.149-.146.1-.1.146-.149.1-.1.149-.146.1-.1.146-.149.1-.1.149-.146.1-.1.146-.149.1-.1.149-.146.1-.1.147-.149.1-.1.149-.146.1-.1.146-.149.1-.1.149-.146.1-.1.146-.149.1-.1.149-.146.1-.1.146-.149.1-.1.149-.146.1-.1.146-.149.1-.1.149-.146.1-.1.146-.149.1-.1.149-.146.1-.1.146-.149a1.763 1.763 0 0 0 .149-.149 1.692 1.692 0 0 0 .146-.146 1.758 1.758 0 0 0 .149-.149c.051-.045.1-.1.149-.146s.1-.1.146-.149.1-.1.149-.146.1-.1.146-.149.1-.1.149-.146.1-.1.146-.149.1-.1.149-.146.1-.1.146-.149.1-.1.149-.146.1-.1.146-.149.1-.1.149-.146.1-.1.146-.149.1-.1.149-.146.1-.1.146-.149.1-.1.149-.146.1-.1.146-.149.1-.1.149-.146.1-.1.146-.149.1-.1.149-.146.1-.1.146-.149.1-.1.149-.146.1-.1.146-.149.1-.1.149-.146.1-.1.146-.149.1-.1.149-.146.1-.1.146-.149.1-.1.149-.146.1-.1.146-.149.1-.1.149-.146.1-.1.146-.149.1-.1.149-.146.1-.1.146-.149.1-.1.149-.146.1-.1.146-.149.1-.1.149-.146.1-.1.146-.149.1-.1.149-.146.1-.1.146-.149.1-.1.149-.146.1-.1.146-.149.1-.1.149-.146.1-.1.146-.149.1-.1.149-.146.1-.1.146-.149.1-.1.149-.146.1-.1.146-.149.1-.1.149-.146.1-.1.146-.149.1-.1.149-.146.1-.1.146-.149.1-.1.149-.146.1-.1.146-.149.1-.1.149-.146.1-.1.146-.149.1-.1.149-.146.1-.1.146-.149.1-.1.149-.146.1-.1.146-.149.1-.1.149-.146.1-.1.146-.149.1-.1.149-.146.1-.1.146-.149.1-.1.149-.146.1-.1.146-.149.1-.1.149-.146.1-.1.146-.149.1-.1.149-.146.1-.1.146-.149.1-.1.149-.146.1-.1.146-.149.1-.1.149-.146.1-.1.146-.149.1-.1.149-.146.1-.1.146-.149 3.2-3.2 3.249-3.246a2.989 2.989 0 0 0 .957-2.17z" class="cls-1" transform="translate(-180.03 -.051)"/>
    <path id="Path_292" d="M224.839 19.273a3.007 3.007 0 0 0-5.175-2.036c-.051.048-3.2 3.2-3.246 3.246l-.149.149-.146.146-.149.149-.146.146c-.051.048-.1.1-.149.149l-.146.146-.149.149-.146.146-.149.149-.147.146-.149.149-.146.146-.149.149-.146.146-.149.149-.146.146-.149.149-.146.146-.149.149-.146.146-.149.149-.146.146-.149.149c-.049.049-.1.1-.149.146s-.1.1-.146.149-.1.1-.149.146-.1.1-.146.149-.1.1-.149.146-.1.1-.146.149-.1.1-.149.146-.1.1-.146.149-.1.1-.149.146-.1.1-.146.149-.1.1-.149.146-.1.1-.146.149-.1.1-.149.146-.1.1-.146.149-.1.1-.149.146-.1.1-.146.149-.1.1-.149.146-.1.1-.146.149-.1.1-.149.146-.1.1-.146.149-.1.1-.149.146-.1.1-.146.149-.1.1-.149.146-.1.1-.146.149-.1.1-.149.146-.1.1-.147.149-.1.1-.149.146-.1.1-.146.149-.1.1-.149.146-.1.1-.146.149-.1.1-.149.146-.1.1-.146.149-.1.1-.149.146-.1.1-.146.149-.1.1-.149.146-.1.1-.146.149-.1.1-.149.146-.1.1-.146.149-.1.1-.149.146-.1.1-.146.149-.1.1-.149.146-.1.1-.146.149-.1.1-.149.146-.1.1-.146.149-.1.1-.149.146-.1.1-.146.149-.1.1-.149.146-.1.1-.146.149-.1.1-.149.146-.1.1-.146.149-.1.1-.149.146-.1.1-.146.149-.1.1-.149.149l-.146.146-.149.149-.146.146-.149.149-.146.146-.149.149-.146.146-.149.149-.146.146-.149.149-.146.146-.149.149-.146.146-.149.149-.146.146-.149.149-.147.146c-.051.048-.1.1-.149.149l-.146.146-.149.149-.146.146-.149.149c-.051.048-1.157 1.151-1.2 1.2-2.971 2.69 1.531 7.2 4.221 4.221.051-.048 1.157-1.151 1.2-1.2a1.7 1.7 0 0 0 .146-.146 1.768 1.768 0 0 0 .149-.149 1.689 1.689 0 0 0 .146-.146 1.765 1.765 0 0 0 .149-.149 1.694 1.694 0 0 0 .146-.146 1.763 1.763 0 0 0 .149-.149c.051-.048.1-.1.149-.146s.1-.1.146-.149.1-.1.149-.146.1-.1.146-.149.1-.1.149-.146.1-.1.146-.149.1-.1.149-.146.1-.1.146-.149.1-.1.149-.146.1-.1.146-.149.1-.1.149-.146.1-.1.146-.149.1-.1.149-.146.1-.1.146-.149.1-.1.149-.146.1-.1.146-.149.1-.1.149-.146.1-.1.146-.149.1-.1.149-.146.1-.1.146-.149.1-.1.149-.146.1-.1.146-.149.1-.1.149-.146.1-.1.146-.149.1-.1.149-.146.1-.1.146-.149.1-.1.149-.146.1-.1.146-.149.1-.1.149-.146.1-.1.146-.149.1-.1.149-.146.1-.1.146-.149.1-.1.149-.146.1-.1.146-.149.1-.1.149-.146.1-.1.146-.149.1-.1.149-.146.1-.1.146-.149.1-.1.149-.146.1-.1.146-.149.1-.1.149-.146.1-.1.146-.149.1-.1.149-.146.1-.1.147-.149.1-.1.149-.146.1-.1.146-.149.1-.1.149-.146.1-.1.146-.149.1-.1.149-.146.1-.1.146-.149.1-.1.149-.146.1-.1.146-.149.1-.1.149-.146.1-.1.146-.149.1-.1.149-.146.1-.1.146-.149.1-.1.149-.146.1-.1.146-.149.1-.1.149-.146.1-.1.146-.149.1-.1.149-.146.1-.1.146-.149.1-.1.149-.146.1-.1.146-.149.1-.1.149-.146.1-.1.146-.149.1-.1.149-.146.1-.1.146-.149.1-.1.149-.146.1-.1.146-.149.1-.1.149-.146.1-.1.146-.149.1-.1.149-.146.1-.1.146-.149.1-.1.149-.146.1-.1.146-.149.1-.1.149-.146.1-.1.146-.149.1-.1.149-.146.1-.1.146-.149.1-.1.149-.146.1-.1.146-.149.1-.1.149-.146.1-.1.146-.149.1-.1.149-.146.1-.1.146-.149.1-.1.149-.146.1-.1.146-.149a1.758 1.758 0 0 0 .149-.149 1.686 1.686 0 0 0 .147-.148 1.766 1.766 0 0 0 .149-.149 1.7 1.7 0 0 0 .146-.146c.054-.048 3.2-3.2 3.249-3.246a2.989 2.989 0 0 0 .955-2.186z" class="cls-1" transform="translate(-193.848 -11.441)"/>
</svg>
