<svg xmlns="http://www.w3.org/2000/svg" width="191.544" height="41.045" viewBox="0 0 191.544 41.045">
    <defs>
        <style>
            .cls-1{fill:#09f}.cls-2{fill:#f60}
        </style>
    </defs>
    <g id="dexef_reg" transform="translate(-260.228 -579.954)">
        <g id="dexef_logo" transform="translate(260.228 579.904)">
            <g id="Layer_1" transform="translate(0 .051)">
                <path id="Path_285" d="M398.3.23h-20.5a4.1 4.1 0 0 0-4.1 4.09v32.72a4.1 4.1 0 0 0 8.2 0V24.77h12.3a4.09 4.09 0 1 0 0-8.18h-12.3V8.41h16.4a4.09 4.09 0 1 0 0-8.18z" class="cls-1" transform="translate(-210.86 -.157)"/>
                <path id="Path_286" d="M318.3 32.95h-16.4v-8.18h12.3a4.09 4.09 0 1 0 0-8.18h-12.3V8.41h16.4a4.09 4.09 0 1 0 0-8.18h-20.5a4.1 4.1 0 0 0-4.1 4.09v32.72a4.1 4.1 0 0 0 4.1 4.09h20.5a4.09 4.09 0 1 0 0-8.18z" class="cls-1" transform="translate(-166.408 -.157)"/>
                <path id="Path_287" d="M124.6 32.95h-16.4v-8.18h12.3a4.09 4.09 0 1 0 0-8.18h-12.3V8.41h16.4a4.09 4.09 0 1 0 0-8.18h-20.5a4.1 4.1 0 0 0-4.1 4.09v32.72a4.1 4.1 0 0 0 4.1 4.09h20.5a4.09 4.09 0 1 0 0-8.18z" class="cls-1" transform="translate(-56.251 -.157)"/>
                <path id="Path_288" d="M28.7 4.324a20.372 20.372 0 0 0-4.1-2.389 19.268 19.268 0 0 0-2.46-.888A20.482 20.482 0 0 0 16.4.23H4.1A4.1 4.1 0 0 0 0 4.32v32.72a4.1 4.1 0 0 0 4.1 4.09h12.3a20.482 20.482 0 0 0 5.741-.818 19.268 19.268 0 0 0 2.46-.888 20.425 20.425 0 0 0 4.1-35.1zm-12.3 28.63H8.2V8.414h8.2a12.27 12.27 0 1 1 0 24.54z" class="cls-1" transform="translate(0 -.157)"/>
                <g id="Group_318" transform="translate(77.996)">
                    <path id="Path_289" d="M194.611 5.516l-.082-.078-.082-.082-.078-.078-.082-.082c-.025-.029-.053-.053-.082-.082l-.078-.078-.082-.082-.078-.078-.082-.082-.082-.082-.078-.078-.082-.082-.078-.078-.082-.082c-.025-.029-.053-.053-.082-.082l-.078-.078-.082-.082-.078-.078-.082-.082c-.025-.029-.053-.053-.082-.082l-.078-.094-.082-.082-.078-.078-.082-.082-.079-.072-.078-.078-.082-.082-.078-.082-.082-.078-.08-.08-.078-.078-.082-.082-.082-.082-.078-.078-.082-.082-.078-.078-.082-.082c-.025-.029-.053-.053-.082-.082l-.078-.078-.082-.082-.078-.078-.082-.082-.082-.082-.061-.061-.082-.082-.078-.078-.082-.082-.082-.082-.086-.078-.082-.082c-3.681-3.914-9.693 2.1-5.779 5.779l.078.082.082.082.082.078.078.082.082.078a.77.77 0 0 0 .082.082l.078.082.082.078.078.082.082.078a.776.776 0 0 0 .082.082l.078.082.082.078.078.082.082.078.082.082.078.082.082.078.078.082.082.082.082.078.078.082.082.078.078.082.082.082.082.078.078.082.082.078.078.082.082.082.082.078.078.082.082.078.082.082.078.082.082.078.078.082.082.078a.77.77 0 0 0 .082.082l.078.082.082.078.078.082.082.082.082.078.078.082.082.078.078.082.082.082.082.078.078.082c3.675 3.902 9.679-2.112 5.769-5.796z" class="cls-2" transform="translate(-182.113 -.159)"/>
                    <path id="Path_290" d="M264.62 75.536l-.041-.041a.193.193 0 0 1-.041-.041l-.041-.041a.386.386 0 0 1-.041-.041l-.041-.037-.123-.123-.041-.041-.037-.041-.041-.041a.192.192 0 0 1-.041-.041l-.082-.082-.041-.037-.123-.123a.384.384 0 0 0-.041-.041l-.037-.041a.383.383 0 0 1-.041-.041.191.191 0 0 1-.041-.041.384.384 0 0 1-.041-.041l-.041-.041-.041-.037-.123-.123a.389.389 0 0 0-.041-.041l-.037-.041a.381.381 0 0 1-.041-.041l-.082-.082-.041-.041-.041-.037-.082-.082a.192.192 0 0 0-.041-.041.38.38 0 0 0-.041-.041l-.033-.036a.388.388 0 0 1-.041-.041l-.082-.082-.041-.037a.383.383 0 0 0-.041-.041l-.041-.041-.082-.082a.382.382 0 0 0-.041-.041l-.037-.041a.383.383 0 0 1-.041-.041l-.082-.082a.387.387 0 0 1-.041-.041l-.041-.037a.385.385 0 0 0-.041-.041l-.082-.082-.041-.041-.037-.041-.041-.041-.082-.082a.385.385 0 0 1-.041-.041l-.041-.037a.382.382 0 0 0-.041-.041l-.082-.082-.041-.041-.037-.041-.041-.041-.082-.082a.383.383 0 0 1-.041-.041l-.041-.037a.386.386 0 0 0-.041-.041l-.082-.082a.385.385 0 0 0-.041-.041l-.037-.041a.379.379 0 0 1-.041-.041l-.082-.082-.041-.041-.041-.037-.041-.041-.082-.082a.192.192 0 0 0-.041-.041l-.037-.041a.382.382 0 0 1-.041-.041l-.082-.082-.041-.041-.041-.037-.041-.041-.082-.082a.194.194 0 0 0-.041-.041l-.037-.041c-3.681-3.865-9.648 2.1-5.783 5.783l.041.041.041.041.037.037.041.041.041.041.041.041.041.041.041.041.041.041.041.041.041.041.041.041.037.037.041.041.041.041.041.041a.389.389 0 0 0 .041.041l.041.041.041.041.041.041.041.041.041.041.037.037.041.041.041.041.041.041a.384.384 0 0 0 .041.041l.041.041.041.041.041.041.041.041.041.041.041.037.037.041.041.041.041.041a.389.389 0 0 0 .041.041l.041.041.041.041a.38.38 0 0 0 .041.041l.041.041.041.041.041.041.037.037.041.041.041.041.041.041.041.041.041.041.041.041.041.041.041.041.041.041.037.037.041.041.041.041.041.041.041.041.041.041.041.041.041.041.041.041.041.041.037.037.041.041.041.041.041.041.041.041.041.041.041.041.041.041.041.041.041.041.037.037.041.041.041.041.041.041.041.041.041.041.041.041.041.041.041.041.041.041.037.037.041.041.041.041.041.041.041.041.041.041.041.041.041.041.041.041.041.041.037.037.041.041.041.041.041.041.041.041.041.041.041.041c3.681 3.861 9.64-2.103 5.779-5.788z" class="cls-2" transform="translate(-223.471 -41.529)"/>
                    <path id="Path_291" d="M214.374 4.12c.131-3.628-4.744-5.485-7.076-2.785-.078.045-4.376 4.352-4.454 4.421s-.135.135-.2.2-.139.131-.2.2-.135.135-.2.2-.139.131-.2.2-.135.135-.2.2-.139.131-.2.2-.135.135-.2.2-.139.131-.2.2-.135.135-.2.2-.139.131-.2.2-.135.135-.2.2-.139.131-.2.2-.135.135-.2.2-.139.131-.2.2-.135.135-.2.2-.139.131-.2.2-.135.135-.2.2-.139.131-.2.2-.135.135-.2.2-.139.131-.2.2-.135.135-.2.2-.139.131-.2.2-.135.135-.2.2-.139.131-.2.2-.135.135-.2.2-.139.131-.2.2-.135.135-.2.2-.139.131-.2.2-.135.135-.2.2-.139.131-.2.2-.135.135-.2.2-.139.131-.2.2-.135.135-.2.2-.139.131-.2.2-.135.135-.2.2-.139.131-.2.2-.135.135-.2.2-.139.131-.2.2-.135.135-.2.2-.139.131-.2.2-.135.135-.2.2-.139.131-.2.2-.135.135-.2.2-.139.131-.2.2-.135.135-.2.2-.139.131-.2.2-.135.131-.2.2-.139.131-.2.2-.135.131-.2.2-.139.131-.2.2-.135.131-.2.2-.139.131-.2.2-.135.131-.2.2-.139.131-.2.2-.135.131-.2.2-.139.131-.2.2-.135.131-.2.2-.139.131-.2.2-.135.131-.2.2-.139.131-.2.2-.135.131-.2.2-.139.131-.2.2-.135.131-.2.2l-.2.2-.2.2-.2.2-.2.2c-.07.065-.139.135-.2.2s-.135.131-.2.2l-.2.2-.2.2-.2.2-.2.2c-.07.065-.139.135-.2.2s-.135.131-.2.2-.139.135-.2.2l-.2.2-.2.2-.2.2c-.07.065-.139.135-.2.2s-.135.131-.2.2-.139.135-.2.2-.135.131-.2.2-.139.135-.2.2l-.2.2c-.074.065-.139.135-.2.2s-.135.131-.2.2-.139.135-.2.2-.139.131-.2.2-.139.135-.2.2-.139.131-.2.2-.139.135-.2.2-.139.131-.2.2-.139.135-.2.2-.139.131-.2.2-.139.135-.2.2-.139.131-.2.2-.139.135-.2.2-1.583 1.575-1.636 1.636c-4.065 3.681 2.094 9.845 5.775 5.775.07-.065 1.583-1.575 1.636-1.636s.135-.135.2-.2.139-.131.2-.2.135-.135.2-.2.139-.131.2-.2.135-.135.2-.2.139-.131.2-.2.135-.135.2-.2.139-.131.2-.2.135-.135.2-.2.139-.131.2-.2.135-.135.2-.2.139-.131.2-.2.135-.135.2-.2.139-.131.2-.2.139-.135.2-.2.139-.131.2-.2.139-.135.2-.2.139-.131.2-.2.139-.135.2-.2.139-.131.2-.2.139-.135.2-.2a2.413 2.413 0 0 0 .2-.2 2.316 2.316 0 0 0 .2-.2 2.407 2.407 0 0 0 .2-.2c.07-.061.139-.131.2-.2s.135-.131.2-.2.139-.131.2-.2.135-.131.2-.2.139-.131.2-.2.135-.131.2-.2.139-.131.2-.2.135-.131.2-.2.139-.131.2-.2.135-.131.2-.2.139-.131.2-.2.135-.131.2-.2.139-.131.2-.2.135-.131.2-.2.139-.131.2-.2.135-.135.2-.2.139-.131.2-.2.135-.135.2-.2.139-.131.2-.2.135-.135.2-.2.139-.131.2-.2.135-.135.2-.2.139-.131.2-.2.135-.135.2-.2.139-.131.2-.2.135-.135.2-.2.139-.131.2-.2.135-.135.2-.2.139-.131.2-.2.135-.135.2-.2.139-.131.2-.2.135-.135.2-.2.139-.131.2-.2.135-.135.2-.2.139-.131.2-.2.135-.135.2-.2.139-.131.2-.2.135-.135.2-.2.139-.131.2-.2.135-.135.2-.2.139-.131.2-.2.135-.135.2-.2.139-.131.2-.2.135-.135.2-.2.139-.131.2-.2.135-.135.2-.2.139-.131.2-.2.135-.135.2-.2.139-.131.2-.2.135-.135.2-.2.139-.131.2-.2.135-.135.2-.2.139-.131.2-.2.135-.135.2-.2.139-.131.2-.2.135-.135.2-.2.139-.131.2-.2.135-.135.2-.2.139-.131.2-.2.135-.135.2-.2.139-.131.2-.2.135-.135.2-.2.139-.131.2-.2.135-.135.2-.2.139-.131.2-.2.135-.135.2-.2.139-.131.2-.2.135-.135.2-.2.139-.131.2-.2.135-.135.2-.2.139-.131.2-.2.135-.135.2-.2.139-.131.2-.2.135-.135.2-.2 4.38-4.372 4.446-4.442a4.09 4.09 0 0 0 1.309-2.969z" class="cls-2" transform="translate(-180.03 -.051)"/>
                    <path id="Path_292" d="M234.079 20.369c.127-3.632-4.748-5.485-7.08-2.785-.07.065-4.376 4.372-4.442 4.442s-.139.135-.2.2-.135.131-.2.2-.139.135-.2.2l-.2.2c-.07.065-.139.135-.2.2s-.135.131-.2.2-.139.135-.2.2-.135.131-.2.2-.139.135-.2.2-.139.131-.2.2-.139.135-.2.2-.139.131-.2.2-.139.135-.2.2-.139.131-.2.2-.139.135-.2.2-.139.131-.2.2-.139.135-.2.2-.139.131-.2.2-.139.135-.2.2-.139.131-.2.2-.139.135-.2.2-.139.131-.2.2-.139.135-.2.2-.139.131-.2.2-.135.135-.2.2-.139.131-.2.2-.135.135-.2.2-.139.131-.2.2-.135.135-.2.2-.139.131-.2.2-.135.135-.2.2-.139.131-.2.2-.135.135-.2.2-.139.131-.2.2-.135.135-.2.2-.139.131-.2.2-.135.135-.2.2-.139.131-.2.2-.135.135-.2.2-.139.131-.2.2-.135.135-.2.2-.139.131-.2.2-.135.135-.2.2-.139.131-.2.2-.135.135-.2.2-.139.131-.2.2-.135.135-.2.2-.139.131-.2.2-.135.135-.2.2-.139.131-.2.2-.135.135-.2.2-.139.131-.2.2-.135.135-.2.2-.139.131-.2.2-.135.135-.2.2-.139.131-.2.2-.135.135-.2.2-.139.131-.2.2-.135.135-.2.2-.139.131-.2.2-.135.135-.2.2-.139.131-.2.2-.135.135-.2.2-.139.131-.2.2-.135.135-.2.2-.139.131-.2.2-.135.135-.2.2-.139.131-.2.2-.135.135-.2.2-.139.131-.2.2-.135.135-.2.2-.139.131-.2.2-.135.135-.2.2-.139.131-.2.2-.135.135-.2.2-.139.131-.2.2-.135.131-.2.2-.139.131-.2.2-.135.131-.2.2-.139.131-.2.2-.135.131-.2.2-.139.131-.2.2-.135.131-.2.2-.139.131-.2.2-.135.131-.2.2-.139.131-.2.2-.135.131-.2.2-.139.131-.2.2-.135.131-.2.2-.139.131-.2.2-.135.131-.2.2l-.2.2-.2.2c-.07.065-.139.135-.2.2s-.135.131-.2.2-.139.135-.2.2l-.2.2-.2.2c-.07.065-1.583 1.575-1.636 1.636-4.065 3.681 2.094 9.845 5.775 5.775.07-.065 1.583-1.575 1.636-1.636a2.322 2.322 0 0 0 .2-.2 2.418 2.418 0 0 0 .2-.2 2.311 2.311 0 0 0 .2-.2 2.413 2.413 0 0 0 .2-.2 2.321 2.321 0 0 0 .2-.2 2.413 2.413 0 0 0 .2-.2c.07-.065.139-.131.2-.2s.135-.131.2-.2.139-.131.2-.2.135-.131.2-.2.139-.131.2-.2.135-.131.2-.2.139-.131.2-.2.135-.135.2-.2.139-.131.2-.2.135-.135.2-.2.139-.131.2-.2.135-.135.2-.2.139-.131.2-.2.135-.135.2-.2.139-.131.2-.2.135-.135.2-.2.139-.131.2-.2.135-.135.2-.2.139-.131.2-.2.135-.135.2-.2.139-.131.2-.2.135-.135.2-.2.139-.131.2-.2.135-.135.2-.2.139-.131.2-.2.135-.135.2-.2.139-.131.2-.2.135-.135.2-.2.139-.131.2-.2.135-.135.2-.2.139-.131.2-.2.135-.135.2-.2.139-.131.2-.2.135-.135.2-.2.139-.131.2-.2.135-.135.2-.2.139-.131.2-.2.135-.135.2-.2.139-.131.2-.2.135-.135.2-.2.139-.131.2-.2.135-.135.2-.2.139-.131.2-.2.135-.135.2-.2.139-.131.2-.2.135-.135.2-.2.139-.131.2-.2.135-.135.2-.2.139-.131.2-.2.135-.135.2-.2.139-.131.2-.2.135-.135.2-.2.139-.131.2-.2.135-.135.2-.2.139-.131.2-.2.135-.135.2-.2.139-.131.2-.2.135-.135.2-.2.139-.131.2-.2.135-.135.2-.2.139-.131.2-.2.135-.135.2-.2.139-.131.2-.2.135-.135.2-.2.139-.131.2-.2.135-.135.2-.2.139-.131.2-.2.135-.135.2-.2.139-.131.2-.2.135-.135.2-.2.139-.131.2-.2.135-.135.2-.2.139-.131.2-.2.135-.135.2-.2.139-.131.2-.2.135-.135.2-.2.139-.131.2-.2.135-.135.2-.2.139-.131.2-.2.135-.135.2-.2.139-.131.2-.2.135-.135.2-.2.139-.131.2-.2.135-.135.2-.2.139-.131.2-.2.135-.135.2-.2.139-.131.2-.2.135-.135.2-.2a2.4 2.4 0 0 0 .2-.2 2.308 2.308 0 0 0 .2-.2 2.419 2.419 0 0 0 .2-.2 2.32 2.32 0 0 0 .2-.2c.074-.065 4.38-4.372 4.446-4.442a4.09 4.09 0 0 0 1.301-2.99z" class="cls-2" transform="translate(-191.679 -9.653)"/>
                </g>
            </g>
        </g>
    </g>
</svg>
