<svg xmlns="http://www.w3.org/2000/svg" id="hide_password" width="24" height="24" viewBox="0 0 24 24">
    <defs>
        <style>
            .cls-2{fill:#09f}
        </style>
    </defs>
    <g id="Group_100">
        <path id="Rectangle_616" fill="none" d="M0 0H24V24H0z"/>
    </g>
    <g id="Group_102">
        <g id="Group_101">
            <path id="Path_32" d="M22.65 10.7A11.8 11.8 0 0 0 7.66 4.83l2.55 2.55A4.45 4.45 0 0 1 12 7a4.507 4.507 0 0 1 4.5 4.5 4.45 4.45 0 0 1-.38 1.79l3.17 3.17a11.8 11.8 0 0 0 3.35-4.16 1.833 1.833 0 0 0 .01-1.6z" class="cls-2"/>
            <path id="Path_33" d="M12 8.8c-.12 0-.23.02-.34.03l3 3c.01-.11.03-.22.03-.34A2.684 2.684 0 0 0 12 8.8z" class="cls-2"/>
            <path id="Path_34" d="M3.51 3.51a1 1 0 0 0-1.41 0 1 1 0 0 0 0 1.41l2.06 2.06a12.106 12.106 0 0 0-2.81 3.72 1.868 1.868 0 0 0 0 1.6A11.825 11.825 0 0 0 12 19a11.549 11.549 0 0 0 3.6-.57l3.47 3.47a1 1 0 0 0 1.41-1.41zM12 16a4.47 4.47 0 0 1-4.37-5.54l1.78 1.78a2.7 2.7 0 0 0 1.84 1.84l1.78 1.78A3.88 3.88 0 0 1 12 16z" class="cls-2"/>
        </g>
    </g>
</svg>
