<svg xmlns="http://www.w3.org/2000/svg" id="show_password" width="24" height="24" viewBox="0 0 24 24">
    <defs>
        <style>
            .cls-2{fill:#09f}
        </style>
    </defs>
    <g id="Group_97">
        <path id="Rectangle_615" fill="none" d="M0 0H24V24H0z"/>
    </g>
    <g id="Group_99">
        <g id="Group_98">
            <path id="Path_31" d="M12 4a11.825 11.825 0 0 0-10.65 6.7 1.868 1.868 0 0 0 0 1.6 11.814 11.814 0 0 0 21.3 0 1.868 1.868 0 0 0 0-1.6A11.825 11.825 0 0 0 12 4zm0 12a4.5 4.5 0 1 1 4.5-4.5A4.507 4.507 0 0 1 12 16z" class="cls-2"/>
            <circle id="Ellipse_16" cx="2.7" cy="2.7" r="2.7" class="cls-2" transform="translate(9.3 8.8)"/>
        </g>
    </g>
</svg>
